# MagicaVoxel @ Ephtracy

# group
g box02

# material
mtllib box02.mtl
usemtl palette

# normals
vn -1 0 0
vn 1 0 0
vn 0 0 1
vn 0 0 -1
vn 0 -1 0
vn 0 1 0

# texcoords
vt 0.126953 0.5
vt 0.693359 0.5
vt 0.970703 0.5
vt 0.994141 0.5

# verts
v -20 0 19
v -20 0 11
v -20 1 20
v -20 1 19
v -20 1 11
v -20 1 10
v -20 3 18
v -20 3 12
v -20 7 18
v -20 7 12
v -20 9 20
v -20 9 19
v -20 9 11
v -20 9 10
v -20 10 19
v -20 10 11
v -19 0 20
v -19 0 19
v -19 0 11
v -19 0 10
v -19 1 20
v -19 1 19
v -19 1 11
v -19 1 10
v -19 9 20
v -19 9 19
v -19 9 11
v -19 9 10
v -19 10 20
v -19 10 19
v -19 10 11
v -19 10 10
v -11 0 20
v -11 0 19
v -11 0 11
v -11 0 10
v -11 1 20
v -11 1 19
v -11 1 11
v -11 1 10
v -11 9 20
v -11 9 19
v -11 9 11
v -11 9 10
v -11 10 20
v -11 10 19
v -11 10 11
v -11 10 10
v -10 0 19
v -10 0 11
v -10 1 20
v -10 1 19
v -10 1 11
v -10 1 10
v -10 3 18
v -10 3 12
v -10 7 18
v -10 7 12
v -10 9 20
v -10 9 19
v -10 9 11
v -10 9 10
v -10 10 19
v -10 10 11
v -20 1 20
v -20 9 20
v -19 0 20
v -19 1 20
v -19 3 20
v -19 4 20
v -19 9 20
v -19 10 20
v -18 5 20
v -18 7 20
v -17 3 20
v -17 4 20
v -17 5 20
v -17 7 20
v -16 1 20
v -16 2 20
v -14 1 20
v -14 2 20
v -13 3 20
v -13 4 20
v -13 5 20
v -13 7 20
v -12 5 20
v -12 7 20
v -11 0 20
v -11 1 20
v -11 3 20
v -11 4 20
v -11 9 20
v -11 10 20
v -10 1 20
v -10 9 20
v -20 0 19
v -20 1 19
v -20 9 19
v -20 10 19
v -19 0 19
v -19 1 19
v -19 9 19
v -19 10 19
v -11 0 19
v -11 1 19
v -11 9 19
v -11 10 19
v -10 0 19
v -10 1 19
v -10 9 19
v -10 10 19
v -20 3 12
v -20 7 12
v -10 3 12
v -10 7 12
v -20 3 18
v -20 7 18
v -10 3 18
v -10 7 18
v -20 0 11
v -20 1 11
v -20 9 11
v -20 10 11
v -19 0 11
v -19 1 11
v -19 9 11
v -19 10 11
v -11 0 11
v -11 1 11
v -11 9 11
v -11 10 11
v -10 0 11
v -10 1 11
v -10 9 11
v -10 10 11
v -20 1 10
v -20 9 10
v -19 0 10
v -19 1 10
v -19 3 10
v -19 4 10
v -19 9 10
v -19 10 10
v -18 5 10
v -18 7 10
v -17 3 10
v -17 4 10
v -17 5 10
v -17 7 10
v -16 1 10
v -16 2 10
v -14 1 10
v -14 2 10
v -13 3 10
v -13 4 10
v -13 5 10
v -13 7 10
v -12 5 10
v -12 7 10
v -11 0 10
v -11 1 10
v -11 3 10
v -11 4 10
v -11 9 10
v -11 10 10
v -10 1 10
v -10 9 10
v -19 0 20
v -11 0 20
v -20 0 19
v -19 0 19
v -11 0 19
v -10 0 19
v -20 0 11
v -19 0 11
v -11 0 11
v -10 0 11
v -19 0 10
v -11 0 10
v -20 1 20
v -19 1 20
v -11 1 20
v -10 1 20
v -20 1 19
v -19 1 19
v -11 1 19
v -10 1 19
v -20 1 11
v -19 1 11
v -11 1 11
v -10 1 11
v -20 1 10
v -19 1 10
v -11 1 10
v -10 1 10
v -20 7 18
v -10 7 18
v -20 7 12
v -10 7 12
v -20 3 18
v -10 3 18
v -20 3 12
v -10 3 12
v -20 9 20
v -19 9 20
v -11 9 20
v -10 9 20
v -20 9 19
v -19 9 19
v -11 9 19
v -10 9 19
v -20 9 11
v -19 9 11
v -11 9 11
v -10 9 11
v -20 9 10
v -19 9 10
v -11 9 10
v -10 9 10
v -19 10 20
v -11 10 20
v -20 10 19
v -19 10 19
v -11 10 19
v -10 10 19
v -16 10 16
v -14 10 16
v -16 10 14
v -14 10 14
v -20 10 11
v -19 10 11
v -11 10 11
v -10 10 11
v -19 10 10
v -11 10 10

# faces
f 4/2/1 2/2/1 1/2/1
f 5/2/1 2/2/1 4/2/1
f 7/2/1 5/2/1 4/2/1
f 8/2/1 5/2/1 7/2/1
f 9/2/1 7/2/1 4/2/1
f 10/2/1 5/2/1 8/2/1
f 11/3/1 4/3/1 3/3/1
f 12/2/1 10/2/1 9/2/1
f 12/3/1 4/3/1 11/3/1
f 12/2/1 9/2/1 4/2/1
f 13/3/1 6/3/1 5/3/1
f 13/2/1 10/2/1 12/2/1
f 13/2/1 5/2/1 10/2/1
f 14/3/1 6/3/1 13/3/1
f 15/2/1 13/2/1 12/2/1
f 16/2/1 13/2/1 15/2/1
f 21/3/1 18/3/1 17/3/1
f 22/3/1 18/3/1 21/3/1
f 23/3/1 20/3/1 19/3/1
f 24/3/1 20/3/1 23/3/1
f 29/3/1 26/3/1 25/3/1
f 30/3/1 26/3/1 29/3/1
f 31/3/1 28/3/1 27/3/1
f 32/3/1 28/3/1 31/3/1
f 33/3/2 34/3/2 37/3/2
f 37/3/2 34/3/2 38/3/2
f 35/3/2 36/3/2 39/3/2
f 39/3/2 36/3/2 40/3/2
f 41/3/2 42/3/2 45/3/2
f 45/3/2 42/3/2 46/3/2
f 43/3/2 44/3/2 47/3/2
f 47/3/2 44/3/2 48/3/2
f 49/2/2 50/2/2 52/2/2
f 52/2/2 50/2/2 53/2/2
f 52/2/2 53/2/2 55/2/2
f 55/2/2 53/2/2 56/2/2
f 52/2/2 55/2/2 57/2/2
f 56/2/2 53/2/2 58/2/2
f 51/3/2 52/3/2 59/3/2
f 57/2/2 58/2/2 60/2/2
f 59/3/2 52/3/2 60/3/2
f 52/2/2 57/2/2 60/2/2
f 53/3/2 54/3/2 61/3/2
f 60/2/2 58/2/2 61/2/2
f 58/2/2 53/2/2 61/2/2
f 61/3/2 54/3/2 62/3/2
f 60/2/2 61/2/2 63/2/2
f 63/2/2 61/2/2 64/2/2
f 68/3/3 66/3/3 65/3/3
f 69/3/3 66/3/3 68/3/3
f 70/3/3 66/3/3 69/3/3
f 71/3/3 66/3/3 70/3/3
f 73/3/3 71/3/3 70/3/3
f 73/3/3 72/3/3 71/3/3
f 74/3/3 72/3/3 73/3/3
f 75/3/3 68/3/3 67/3/3
f 75/3/3 69/3/3 68/3/3
f 75/1/3 70/1/3 69/1/3
f 76/3/3 73/3/3 70/3/3
f 76/1/3 70/1/3 75/1/3
f 77/4/3 74/4/3 73/4/3
f 77/3/3 73/3/3 76/3/3
f 78/3/3 72/3/3 74/3/3
f 78/4/3 74/4/3 77/4/3
f 79/3/3 77/3/3 76/3/3
f 79/3/3 76/3/3 75/3/3
f 79/3/3 78/3/3 77/3/3
f 79/3/3 75/3/3 67/3/3
f 80/3/3 78/3/3 79/3/3
f 81/3/3 79/3/3 67/3/3
f 81/4/3 80/4/3 79/4/3
f 82/3/3 78/3/3 80/3/3
f 82/4/3 80/4/3 81/4/3
f 83/3/3 82/3/3 81/3/3
f 83/3/3 78/3/3 82/3/3
f 84/3/3 78/3/3 83/3/3
f 85/3/3 78/3/3 84/3/3
f 86/3/3 72/3/3 78/3/3
f 86/3/3 78/3/3 85/3/3
f 87/3/3 85/3/3 84/3/3
f 87/4/3 86/4/3 85/4/3
f 88/3/3 72/3/3 86/3/3
f 88/4/3 86/4/3 87/4/3
f 89/3/3 81/3/3 67/3/3
f 89/3/3 83/3/3 81/3/3
f 90/3/3 83/3/3 89/3/3
f 91/1/3 84/1/3 83/1/3
f 91/3/3 83/3/3 90/3/3
f 92/3/3 87/3/3 84/3/3
f 92/1/3 84/1/3 91/1/3
f 92/3/3 88/3/3 87/3/3
f 93/3/3 72/3/3 88/3/3
f 93/3/3 88/3/3 92/3/3
f 94/3/3 72/3/3 93/3/3
f 95/3/3 91/3/3 90/3/3
f 95/3/3 92/3/3 91/3/3
f 95/3/3 93/3/3 92/3/3
f 96/3/3 93/3/3 95/3/3
f 101/2/3 98/2/3 97/2/3
f 102/2/3 98/2/3 101/2/3
f 103/2/3 100/2/3 99/2/3
f 104/2/3 100/2/3 103/2/3
f 109/2/3 106/2/3 105/2/3
f 110/2/3 106/2/3 109/2/3
f 111/2/3 108/2/3 107/2/3
f 112/2/3 108/2/3 111/2/3
f 115/2/3 114/2/3 113/2/3
f 116/2/3 114/2/3 115/2/3
f 117/2/4 118/2/4 119/2/4
f 119/2/4 118/2/4 120/2/4
f 121/2/4 122/2/4 125/2/4
f 125/2/4 122/2/4 126/2/4
f 123/2/4 124/2/4 127/2/4
f 127/2/4 124/2/4 128/2/4
f 129/2/4 130/2/4 133/2/4
f 133/2/4 130/2/4 134/2/4
f 131/2/4 132/2/4 135/2/4
f 135/2/4 132/2/4 136/2/4
f 137/3/4 138/3/4 140/3/4
f 140/3/4 138/3/4 141/3/4
f 141/3/4 138/3/4 142/3/4
f 142/3/4 138/3/4 143/3/4
f 142/3/4 143/3/4 145/3/4
f 143/3/4 144/3/4 145/3/4
f 145/3/4 144/3/4 146/3/4
f 139/3/4 140/3/4 147/3/4
f 140/3/4 141/3/4 147/3/4
f 141/1/4 142/1/4 147/1/4
f 142/3/4 145/3/4 148/3/4
f 147/1/4 142/1/4 148/1/4
f 145/4/4 146/4/4 149/4/4
f 148/3/4 145/3/4 149/3/4
f 146/3/4 144/3/4 150/3/4
f 149/4/4 146/4/4 150/4/4
f 148/3/4 149/3/4 151/3/4
f 147/3/4 148/3/4 151/3/4
f 149/3/4 150/3/4 151/3/4
f 139/3/4 147/3/4 151/3/4
f 151/3/4 150/3/4 152/3/4
f 139/3/4 151/3/4 153/3/4
f 151/4/4 152/4/4 153/4/4
f 152/3/4 150/3/4 154/3/4
f 153/4/4 152/4/4 154/4/4
f 153/3/4 154/3/4 155/3/4
f 154/3/4 150/3/4 155/3/4
f 155/3/4 150/3/4 156/3/4
f 156/3/4 150/3/4 157/3/4
f 150/3/4 144/3/4 158/3/4
f 157/3/4 150/3/4 158/3/4
f 156/3/4 157/3/4 159/3/4
f 157/4/4 158/4/4 159/4/4
f 158/3/4 144/3/4 160/3/4
f 159/4/4 158/4/4 160/4/4
f 139/3/4 153/3/4 161/3/4
f 153/3/4 155/3/4 161/3/4
f 161/3/4 155/3/4 162/3/4
f 155/1/4 156/1/4 163/1/4
f 162/3/4 155/3/4 163/3/4
f 156/3/4 159/3/4 164/3/4
f 163/1/4 156/1/4 164/1/4
f 159/3/4 160/3/4 164/3/4
f 160/3/4 144/3/4 165/3/4
f 164/3/4 160/3/4 165/3/4
f 165/3/4 144/3/4 166/3/4
f 162/3/4 163/3/4 167/3/4
f 163/3/4 164/3/4 167/3/4
f 164/3/4 165/3/4 167/3/4
f 167/3/4 165/3/4 168/3/4
f 172/3/5 170/3/5 169/3/5
f 173/3/5 170/3/5 172/3/5
f 175/2/5 172/2/5 171/2/5
f 175/2/5 174/2/5 173/2/5
f 175/2/5 173/2/5 172/2/5
f 176/2/5 174/2/5 175/2/5
f 177/2/5 174/2/5 176/2/5
f 178/2/5 174/2/5 177/2/5
f 179/3/5 177/3/5 176/3/5
f 180/3/5 177/3/5 179/3/5
f 185/3/5 182/3/5 181/3/5
f 186/3/5 182/3/5 185/3/5
f 187/3/5 184/3/5 183/3/5
f 188/3/5 184/3/5 187/3/5
f 193/3/5 190/3/5 189/3/5
f 194/3/5 190/3/5 193/3/5
f 195/3/5 192/3/5 191/3/5
f 196/3/5 192/3/5 195/3/5
f 199/2/5 198/2/5 197/2/5
f 200/2/5 198/2/5 199/2/5
f 201/2/6 202/2/6 203/2/6
f 203/2/6 202/2/6 204/2/6
f 205/3/6 206/3/6 209/3/6
f 209/3/6 206/3/6 210/3/6
f 207/3/6 208/3/6 211/3/6
f 211/3/6 208/3/6 212/3/6
f 213/3/6 214/3/6 217/3/6
f 217/3/6 214/3/6 218/3/6
f 215/3/6 216/3/6 219/3/6
f 219/3/6 216/3/6 220/3/6
f 221/3/6 222/3/6 224/3/6
f 224/3/6 222/3/6 225/3/6
f 223/2/6 224/2/6 227/2/6
f 225/2/6 226/2/6 227/2/6
f 224/2/6 225/2/6 227/2/6
f 227/2/6 226/2/6 228/2/6
f 223/2/6 227/2/6 229/2/6
f 227/3/6 228/3/6 229/3/6
f 228/2/6 226/2/6 230/2/6
f 229/3/6 228/3/6 230/3/6
f 223/2/6 229/2/6 231/2/6
f 229/2/6 230/2/6 231/2/6
f 231/2/6 230/2/6 232/2/6
f 230/2/6 226/2/6 233/2/6
f 232/2/6 230/2/6 233/2/6
f 233/2/6 226/2/6 234/2/6
f 232/3/6 233/3/6 235/3/6
f 235/3/6 233/3/6 236/3/6
